<svg width="32" height="32" viewBox="0 0 32 32" fill="none" xmlns="http://www.w3.org/2000/svg">
<mask id="mask0_0_1" style="mask-type:alpha" maskUnits="userSpaceOnUse" x="1" y="1" width="30" height="30">
<path d="M24 4C24 2.34315 22.6569 1 21 1H10V7H21C22.6569 7 24 5.65685 24 4Z" fill="#78D64B"/>
<path d="M8 28C8 29.6569 9.34315 31 11 31H22V25H11C9.34315 25 8 26.3431 8 28Z" fill="#78D64B"/>
<rect width="12" height="6" transform="matrix(-1 0 0 1 22 13)" fill="#78D64B"/>
<circle cx="28" cy="4" r="3" fill="#5BCEFA"/>
<circle cx="4" cy="28" r="3" fill="#5BCEFA"/>
<path fill-rule="evenodd" clip-rule="evenodd" d="M6.55585 1.68508C7.64778 1.23279 8.8181 1 10 1V7C8.34315 7 7 8.34315 7 10C7 11.6569 8.34315 13 10 13L10 19C8.8181 19 7.64778 18.7672 6.55585 18.3149C5.46392 17.8626 4.47177 17.1997 3.63604 16.364C2.80031 15.5282 2.13738 14.5361 1.68508 13.4442C1.23279 12.3522 1 11.1819 1 10C1 8.8181 1.23279 7.64778 1.68508 6.55585C2.13738 5.46392 2.80031 4.47177 3.63604 3.63604C4.47177 2.80031 5.46392 2.13738 6.55585 1.68508Z" fill="#78D64B"/>
<path fill-rule="evenodd" clip-rule="evenodd" d="M25.4442 30.3149C24.3522 30.7672 23.1819 31 22 31V25C23.6569 25 25 23.6569 25 22C25 20.3431 23.6569 19 22 19L22 13C23.1819 13 24.3522 13.2328 25.4442 13.6851C26.5361 14.1374 27.5282 14.8003 28.364 15.636C29.1997 16.4718 29.8626 17.4639 30.3149 18.5558C30.7672 19.6478 31 20.8181 31 22C31 23.1819 30.7672 24.3522 30.3149 25.4442C29.8626 26.5361 29.1997 27.5282 28.364 28.364C27.5282 29.1997 26.5361 29.8626 25.4442 30.3149Z" fill="#78D64B"/>
</mask>
<g mask="url(#mask0_0_1)">
<rect x="8" y="22" width="23" height="9" fill="#F5A9B8"/>
<rect x="1" y="10" width="30" height="12" fill="white"/>
<rect x="1" y="1" width="23" height="9" fill="#F5A9B8"/>
<circle cx="4" cy="28" r="3" fill="#5BCEFA"/>
<circle cx="28" cy="4" r="3" fill="#5BCEFA"/>
</g>
</svg>
